<mxfile host="app.diagrams.net" agent="Mozilla/5.0 (Macintosh; Intel Mac OS X 10_15_7) AppleWebKit/537.36 (KHTML, like Gecko) Chrome/129.0.0.0 Safari/537.36" version="24.8.0">
  <diagram id="R2lEEEUBdFMjLlhIrx00" name="Page-1">
    <mxGraphModel dx="2835" dy="1950" grid="0" gridSize="10" guides="1" tooltips="1" connect="1" arrows="0" fold="1" page="1" pageScale="1" pageWidth="1100" pageHeight="850" math="0" shadow="0" extFonts="Permanent Marker^https://fonts.googleapis.com/css?family=Permanent+Marker">
      <root>
        <mxCell id="0" />
        <mxCell id="1" parent="0" />
        <mxCell id="Om7gcetM5opKt37vXx8c-75" style="edgeStyle=orthogonalEdgeStyle;rounded=0;orthogonalLoop=1;jettySize=auto;html=1;exitX=0.75;exitY=1;exitDx=0;exitDy=0;entryX=0;entryY=0.5;entryDx=0;entryDy=0;strokeColor=#23445D;" edge="1" parent="1" source="Om7gcetM5opKt37vXx8c-1" target="Om7gcetM5opKt37vXx8c-74">
          <mxGeometry relative="1" as="geometry">
            <Array as="points">
              <mxPoint x="293" y="150" />
              <mxPoint x="293" y="186" />
              <mxPoint x="380" y="186" />
            </Array>
          </mxGeometry>
        </mxCell>
        <mxCell id="Om7gcetM5opKt37vXx8c-85" style="edgeStyle=orthogonalEdgeStyle;rounded=0;orthogonalLoop=1;jettySize=auto;html=1;exitX=0.5;exitY=1;exitDx=0;exitDy=0;entryX=1;entryY=0.5;entryDx=0;entryDy=0;strokeColor=#23445D;" edge="1" parent="1" source="Om7gcetM5opKt37vXx8c-1" target="Om7gcetM5opKt37vXx8c-83">
          <mxGeometry relative="1" as="geometry">
            <Array as="points">
              <mxPoint x="170" y="150" />
              <mxPoint x="170" y="214" />
              <mxPoint x="191" y="214" />
              <mxPoint x="191" y="280" />
            </Array>
          </mxGeometry>
        </mxCell>
        <mxCell id="Om7gcetM5opKt37vXx8c-93" style="edgeStyle=orthogonalEdgeStyle;rounded=0;orthogonalLoop=1;jettySize=auto;html=1;exitX=0.75;exitY=1;exitDx=0;exitDy=0;strokeColor=#23445D;" edge="1" parent="1" source="Om7gcetM5opKt37vXx8c-1" target="Om7gcetM5opKt37vXx8c-94">
          <mxGeometry relative="1" as="geometry">
            <mxPoint x="635" y="443" as="targetPoint" />
            <Array as="points">
              <mxPoint x="225" y="296" />
              <mxPoint x="635" y="296" />
            </Array>
          </mxGeometry>
        </mxCell>
        <mxCell id="Om7gcetM5opKt37vXx8c-1" value="User" style="rounded=0;whiteSpace=wrap;html=1;labelBackgroundColor=none;fillColor=#182E3E;strokeColor=#FFFFFF;fontColor=#FFFFFF;" vertex="1" parent="1">
          <mxGeometry x="135" y="90" width="120" height="60" as="geometry" />
        </mxCell>
        <mxCell id="Om7gcetM5opKt37vXx8c-80" style="edgeStyle=orthogonalEdgeStyle;rounded=0;orthogonalLoop=1;jettySize=auto;html=1;exitX=0.25;exitY=1;exitDx=0;exitDy=0;entryX=1;entryY=0.5;entryDx=0;entryDy=0;strokeColor=#23445D;endArrow=none;endFill=0;startArrow=classic;startFill=1;" edge="1" parent="1" source="Om7gcetM5opKt37vXx8c-2" target="Om7gcetM5opKt37vXx8c-77">
          <mxGeometry relative="1" as="geometry" />
        </mxCell>
        <mxCell id="Om7gcetM5opKt37vXx8c-2" value="OrderItem" style="rounded=0;whiteSpace=wrap;html=1;labelBackgroundColor=none;fillColor=#182E3E;strokeColor=#FFFFFF;fontColor=#FFFFFF;" vertex="1" parent="1">
          <mxGeometry x="1050" y="70" width="120" height="60" as="geometry" />
        </mxCell>
        <mxCell id="Om7gcetM5opKt37vXx8c-84" style="edgeStyle=orthogonalEdgeStyle;rounded=0;orthogonalLoop=1;jettySize=auto;html=1;exitX=0.5;exitY=0;exitDx=0;exitDy=0;entryX=0;entryY=0.5;entryDx=0;entryDy=0;strokeColor=#23445D;endArrow=none;endFill=0;" edge="1" parent="1" source="Om7gcetM5opKt37vXx8c-3" target="Om7gcetM5opKt37vXx8c-83">
          <mxGeometry relative="1" as="geometry" />
        </mxCell>
        <mxCell id="Om7gcetM5opKt37vXx8c-86" style="edgeStyle=orthogonalEdgeStyle;rounded=0;orthogonalLoop=1;jettySize=auto;html=1;exitX=0;exitY=0.5;exitDx=0;exitDy=0;entryX=0.5;entryY=0;entryDx=0;entryDy=0;strokeColor=#23445D;" edge="1" parent="1" source="Om7gcetM5opKt37vXx8c-3" target="Om7gcetM5opKt37vXx8c-28">
          <mxGeometry relative="1" as="geometry" />
        </mxCell>
        <mxCell id="Om7gcetM5opKt37vXx8c-87" style="edgeStyle=orthogonalEdgeStyle;rounded=0;orthogonalLoop=1;jettySize=auto;html=1;exitX=0.5;exitY=1;exitDx=0;exitDy=0;entryX=0.5;entryY=0;entryDx=0;entryDy=0;strokeColor=#23445D;" edge="1" parent="1" source="Om7gcetM5opKt37vXx8c-3" target="Om7gcetM5opKt37vXx8c-29">
          <mxGeometry relative="1" as="geometry" />
        </mxCell>
        <mxCell id="Om7gcetM5opKt37vXx8c-88" style="edgeStyle=orthogonalEdgeStyle;rounded=0;orthogonalLoop=1;jettySize=auto;html=1;exitX=1;exitY=0.5;exitDx=0;exitDy=0;strokeColor=#23445D;" edge="1" parent="1" source="Om7gcetM5opKt37vXx8c-3" target="Om7gcetM5opKt37vXx8c-89">
          <mxGeometry relative="1" as="geometry">
            <mxPoint x="196.81818181818153" y="535.454545454545" as="targetPoint" />
          </mxGeometry>
        </mxCell>
        <mxCell id="Om7gcetM5opKt37vXx8c-3" value="Cart" style="rounded=0;whiteSpace=wrap;html=1;labelBackgroundColor=none;fillColor=#182E3E;strokeColor=#FFFFFF;fontColor=#FFFFFF;" vertex="1" parent="1">
          <mxGeometry x="-57" y="320" width="120" height="60" as="geometry" />
        </mxCell>
        <mxCell id="Om7gcetM5opKt37vXx8c-4" value="Category" style="rounded=0;whiteSpace=wrap;html=1;labelBackgroundColor=none;fillColor=#182E3E;strokeColor=#FFFFFF;fontColor=#FFFFFF;" vertex="1" parent="1">
          <mxGeometry x="630" y="657" width="120" height="60" as="geometry" />
        </mxCell>
        <mxCell id="Om7gcetM5opKt37vXx8c-96" style="edgeStyle=orthogonalEdgeStyle;rounded=0;orthogonalLoop=1;jettySize=auto;html=1;exitX=0.75;exitY=0;exitDx=0;exitDy=0;entryX=0;entryY=0.5;entryDx=0;entryDy=0;strokeColor=#23445D;" edge="1" parent="1" source="Om7gcetM5opKt37vXx8c-5" target="Om7gcetM5opKt37vXx8c-97">
          <mxGeometry relative="1" as="geometry" />
        </mxCell>
        <mxCell id="Om7gcetM5opKt37vXx8c-99" style="edgeStyle=orthogonalEdgeStyle;rounded=0;orthogonalLoop=1;jettySize=auto;html=1;exitX=0;exitY=0.25;exitDx=0;exitDy=0;entryX=1;entryY=0.5;entryDx=0;entryDy=0;strokeColor=#23445D;" edge="1" parent="1" source="Om7gcetM5opKt37vXx8c-5" target="Om7gcetM5opKt37vXx8c-31">
          <mxGeometry relative="1" as="geometry" />
        </mxCell>
        <mxCell id="Om7gcetM5opKt37vXx8c-5" value="Product" style="rounded=0;whiteSpace=wrap;html=1;labelBackgroundColor=none;fillColor=#182E3E;strokeColor=#FFFFFF;fontColor=#FFFFFF;" vertex="1" parent="1">
          <mxGeometry x="190" y="670" width="120" height="60" as="geometry" />
        </mxCell>
        <mxCell id="Om7gcetM5opKt37vXx8c-6" value="Review" style="rounded=0;whiteSpace=wrap;html=1;labelBackgroundColor=none;fillColor=#182E3E;strokeColor=#FFFFFF;fontColor=#FFFFFF;" vertex="1" parent="1">
          <mxGeometry x="935" y="479" width="120" height="60" as="geometry" />
        </mxCell>
        <mxCell id="Om7gcetM5opKt37vXx8c-81" style="edgeStyle=orthogonalEdgeStyle;rounded=0;orthogonalLoop=1;jettySize=auto;html=1;exitX=0.75;exitY=1;exitDx=0;exitDy=0;entryX=0;entryY=0.5;entryDx=0;entryDy=0;strokeColor=#23445D;" edge="1" parent="1" source="Om7gcetM5opKt37vXx8c-7" target="Om7gcetM5opKt37vXx8c-77">
          <mxGeometry relative="1" as="geometry" />
        </mxCell>
        <mxCell id="Om7gcetM5opKt37vXx8c-7" value="Order" style="rounded=0;whiteSpace=wrap;html=1;labelBackgroundColor=none;fillColor=#182E3E;strokeColor=#FFFFFF;fontColor=#FFFFFF;" vertex="1" parent="1">
          <mxGeometry x="620" y="100" width="120" height="60" as="geometry" />
        </mxCell>
        <mxCell id="Om7gcetM5opKt37vXx8c-64" style="edgeStyle=orthogonalEdgeStyle;rounded=0;orthogonalLoop=1;jettySize=auto;html=1;exitX=0.5;exitY=1;exitDx=0;exitDy=0;entryX=0;entryY=0.25;entryDx=0;entryDy=0;labelBackgroundColor=none;strokeColor=#23445D;fontColor=default;endArrow=none;endFill=0;" edge="1" parent="1" source="Om7gcetM5opKt37vXx8c-8" target="Om7gcetM5opKt37vXx8c-1">
          <mxGeometry relative="1" as="geometry" />
        </mxCell>
        <mxCell id="Om7gcetM5opKt37vXx8c-8" value="&lt;u&gt;id&lt;/u&gt;" style="ellipse;whiteSpace=wrap;html=1;labelBackgroundColor=none;fillColor=#182E3E;strokeColor=#FFFFFF;fontColor=#FFFFFF;rounded=0;" vertex="1" parent="1">
          <mxGeometry x="50" y="10" width="70" height="50" as="geometry" />
        </mxCell>
        <mxCell id="Om7gcetM5opKt37vXx8c-65" style="edgeStyle=orthogonalEdgeStyle;rounded=0;orthogonalLoop=1;jettySize=auto;html=1;exitX=0.5;exitY=1;exitDx=0;exitDy=0;entryX=0.5;entryY=0;entryDx=0;entryDy=0;labelBackgroundColor=none;strokeColor=#23445D;fontColor=default;endArrow=none;endFill=0;" edge="1" parent="1" source="Om7gcetM5opKt37vXx8c-9" target="Om7gcetM5opKt37vXx8c-1">
          <mxGeometry relative="1" as="geometry" />
        </mxCell>
        <mxCell id="Om7gcetM5opKt37vXx8c-9" value="username" style="ellipse;whiteSpace=wrap;html=1;labelBackgroundColor=none;fillColor=#182E3E;strokeColor=#FFFFFF;fontColor=#FFFFFF;rounded=0;" vertex="1" parent="1">
          <mxGeometry x="160" y="10" width="70" height="50" as="geometry" />
        </mxCell>
        <mxCell id="Om7gcetM5opKt37vXx8c-68" style="edgeStyle=orthogonalEdgeStyle;rounded=0;orthogonalLoop=1;jettySize=auto;html=1;exitX=0.5;exitY=1;exitDx=0;exitDy=0;entryX=1;entryY=0.5;entryDx=0;entryDy=0;labelBackgroundColor=none;strokeColor=#23445D;fontColor=default;endArrow=none;endFill=0;" edge="1" parent="1" source="Om7gcetM5opKt37vXx8c-10" target="Om7gcetM5opKt37vXx8c-1">
          <mxGeometry relative="1" as="geometry" />
        </mxCell>
        <mxCell id="Om7gcetM5opKt37vXx8c-10" value="is_admin" style="ellipse;whiteSpace=wrap;html=1;labelBackgroundColor=none;fillColor=#182E3E;strokeColor=#FFFFFF;fontColor=#FFFFFF;rounded=0;" vertex="1" parent="1">
          <mxGeometry x="300" y="70" width="70" height="50" as="geometry" />
        </mxCell>
        <mxCell id="Om7gcetM5opKt37vXx8c-63" style="edgeStyle=orthogonalEdgeStyle;rounded=0;orthogonalLoop=1;jettySize=auto;html=1;exitX=1;exitY=0.5;exitDx=0;exitDy=0;entryX=0;entryY=0.75;entryDx=0;entryDy=0;labelBackgroundColor=none;strokeColor=#23445D;fontColor=default;endArrow=none;endFill=0;" edge="1" parent="1" source="Om7gcetM5opKt37vXx8c-11" target="Om7gcetM5opKt37vXx8c-1">
          <mxGeometry relative="1" as="geometry" />
        </mxCell>
        <mxCell id="Om7gcetM5opKt37vXx8c-11" value="password_hash" style="ellipse;whiteSpace=wrap;html=1;labelBackgroundColor=none;fillColor=#182E3E;strokeColor=#FFFFFF;fontColor=#FFFFFF;rounded=0;" vertex="1" parent="1">
          <mxGeometry x="-20" y="120" width="100" height="50" as="geometry" />
        </mxCell>
        <mxCell id="Om7gcetM5opKt37vXx8c-12" value="email" style="ellipse;whiteSpace=wrap;html=1;labelBackgroundColor=none;fillColor=#182E3E;strokeColor=#FFFFFF;fontColor=#FFFFFF;rounded=0;" vertex="1" parent="1">
          <mxGeometry x="260" y="10" width="70" height="50" as="geometry" />
        </mxCell>
        <mxCell id="Om7gcetM5opKt37vXx8c-70" style="edgeStyle=orthogonalEdgeStyle;rounded=0;orthogonalLoop=1;jettySize=auto;html=1;exitX=0;exitY=1;exitDx=0;exitDy=0;entryX=0.25;entryY=0;entryDx=0;entryDy=0;labelBackgroundColor=none;strokeColor=#23445D;fontColor=default;endArrow=none;endFill=0;" edge="1" parent="1" source="Om7gcetM5opKt37vXx8c-13" target="Om7gcetM5opKt37vXx8c-7">
          <mxGeometry relative="1" as="geometry" />
        </mxCell>
        <mxCell id="Om7gcetM5opKt37vXx8c-13" value="&lt;u&gt;id&lt;/u&gt;" style="ellipse;whiteSpace=wrap;html=1;labelBackgroundColor=none;fillColor=#182E3E;strokeColor=#FFFFFF;fontColor=#FFFFFF;rounded=0;" vertex="1" parent="1">
          <mxGeometry x="630" y="10" width="70" height="50" as="geometry" />
        </mxCell>
        <mxCell id="Om7gcetM5opKt37vXx8c-14" value="user_id" style="ellipse;whiteSpace=wrap;html=1;labelBackgroundColor=none;fillColor=#182E3E;strokeColor=#FFFFFF;fontColor=#FFFFFF;rounded=0;" vertex="1" parent="1">
          <mxGeometry x="710" y="5" width="70" height="50" as="geometry" />
        </mxCell>
        <mxCell id="Om7gcetM5opKt37vXx8c-69" style="edgeStyle=orthogonalEdgeStyle;rounded=0;orthogonalLoop=1;jettySize=auto;html=1;exitX=0.5;exitY=1;exitDx=0;exitDy=0;entryX=0;entryY=0.75;entryDx=0;entryDy=0;labelBackgroundColor=none;strokeColor=#23445D;fontColor=default;endArrow=none;endFill=0;" edge="1" parent="1" source="Om7gcetM5opKt37vXx8c-16" target="Om7gcetM5opKt37vXx8c-7">
          <mxGeometry relative="1" as="geometry" />
        </mxCell>
        <mxCell id="Om7gcetM5opKt37vXx8c-16" value="total_amount" style="ellipse;whiteSpace=wrap;html=1;labelBackgroundColor=none;fillColor=#182E3E;strokeColor=#FFFFFF;fontColor=#FFFFFF;rounded=0;" vertex="1" parent="1">
          <mxGeometry x="510" y="30" width="100" height="50" as="geometry" />
        </mxCell>
        <mxCell id="Om7gcetM5opKt37vXx8c-72" style="edgeStyle=orthogonalEdgeStyle;rounded=0;orthogonalLoop=1;jettySize=auto;html=1;exitX=0.5;exitY=1;exitDx=0;exitDy=0;entryX=1;entryY=0.5;entryDx=0;entryDy=0;endArrow=none;endFill=0;labelBackgroundColor=none;strokeColor=#23445D;fontColor=default;" edge="1" parent="1" source="Om7gcetM5opKt37vXx8c-17" target="Om7gcetM5opKt37vXx8c-7">
          <mxGeometry relative="1" as="geometry" />
        </mxCell>
        <mxCell id="Om7gcetM5opKt37vXx8c-17" value="paid" style="ellipse;whiteSpace=wrap;html=1;labelBackgroundColor=none;fillColor=#182E3E;strokeColor=#FFFFFF;fontColor=#FFFFFF;rounded=0;" vertex="1" parent="1">
          <mxGeometry x="760" y="70" width="70" height="50" as="geometry" />
        </mxCell>
        <mxCell id="Om7gcetM5opKt37vXx8c-44" style="edgeStyle=orthogonalEdgeStyle;rounded=0;orthogonalLoop=1;jettySize=auto;html=1;exitX=1;exitY=1;exitDx=0;exitDy=0;entryX=0;entryY=0.25;entryDx=0;entryDy=0;labelBackgroundColor=none;strokeColor=#23445D;fontColor=default;align=center;verticalAlign=middle;fontFamily=Helvetica;fontSize=11;endArrow=none;endFill=0;" edge="1" parent="1" source="Om7gcetM5opKt37vXx8c-18" target="Om7gcetM5opKt37vXx8c-2">
          <mxGeometry relative="1" as="geometry" />
        </mxCell>
        <mxCell id="Om7gcetM5opKt37vXx8c-18" value="&lt;u&gt;id&lt;/u&gt;" style="ellipse;whiteSpace=wrap;html=1;labelBackgroundColor=none;fillColor=#182E3E;strokeColor=#FFFFFF;fontColor=#FFFFFF;rounded=0;" vertex="1" parent="1">
          <mxGeometry x="1010" y="-70" width="70" height="50" as="geometry" />
        </mxCell>
        <mxCell id="Om7gcetM5opKt37vXx8c-47" style="edgeStyle=orthogonalEdgeStyle;rounded=0;orthogonalLoop=1;jettySize=auto;html=1;exitX=0.5;exitY=1;exitDx=0;exitDy=0;entryX=0.25;entryY=0;entryDx=0;entryDy=0;labelBackgroundColor=none;strokeColor=#23445D;fontColor=default;align=center;verticalAlign=middle;fontFamily=Helvetica;fontSize=11;endArrow=none;endFill=0;" edge="1" parent="1" source="Om7gcetM5opKt37vXx8c-19" target="Om7gcetM5opKt37vXx8c-2">
          <mxGeometry relative="1" as="geometry" />
        </mxCell>
        <mxCell id="Om7gcetM5opKt37vXx8c-19" value="order_id" style="ellipse;whiteSpace=wrap;html=1;labelBackgroundColor=none;fillColor=#182E3E;strokeColor=#FFFFFF;fontColor=#FFFFFF;rounded=0;" vertex="1" parent="1">
          <mxGeometry x="1140" y="-60" width="70" height="50" as="geometry" />
        </mxCell>
        <mxCell id="Om7gcetM5opKt37vXx8c-79" style="edgeStyle=orthogonalEdgeStyle;rounded=0;orthogonalLoop=1;jettySize=auto;html=1;exitX=0;exitY=0.5;exitDx=0;exitDy=0;entryX=0.75;entryY=1;entryDx=0;entryDy=0;strokeColor=#23445D;" edge="1" parent="1" source="Om7gcetM5opKt37vXx8c-20" target="Om7gcetM5opKt37vXx8c-2">
          <mxGeometry relative="1" as="geometry" />
        </mxCell>
        <mxCell id="Om7gcetM5opKt37vXx8c-20" value="price" style="ellipse;whiteSpace=wrap;html=1;labelBackgroundColor=none;fillColor=#182E3E;strokeColor=#FFFFFF;fontColor=#FFFFFF;rounded=0;" vertex="1" parent="1">
          <mxGeometry x="1230" y="140" width="70" height="50" as="geometry" />
        </mxCell>
        <mxCell id="Om7gcetM5opKt37vXx8c-45" style="edgeStyle=orthogonalEdgeStyle;rounded=0;orthogonalLoop=1;jettySize=auto;html=1;exitX=1;exitY=0.5;exitDx=0;exitDy=0;entryX=0;entryY=0.75;entryDx=0;entryDy=0;labelBackgroundColor=none;strokeColor=#23445D;fontColor=default;align=center;verticalAlign=middle;fontFamily=Helvetica;fontSize=11;endArrow=none;endFill=0;" edge="1" parent="1" source="Om7gcetM5opKt37vXx8c-21" target="Om7gcetM5opKt37vXx8c-2">
          <mxGeometry relative="1" as="geometry" />
        </mxCell>
        <mxCell id="Om7gcetM5opKt37vXx8c-21" value="quantity" style="ellipse;whiteSpace=wrap;html=1;labelBackgroundColor=none;fillColor=#182E3E;strokeColor=#FFFFFF;fontColor=#FFFFFF;rounded=0;" vertex="1" parent="1">
          <mxGeometry x="880" y="-40" width="100" height="50" as="geometry" />
        </mxCell>
        <mxCell id="Om7gcetM5opKt37vXx8c-48" style="edgeStyle=orthogonalEdgeStyle;rounded=0;orthogonalLoop=1;jettySize=auto;html=1;exitX=0.5;exitY=1;exitDx=0;exitDy=0;entryX=0.75;entryY=0;entryDx=0;entryDy=0;labelBackgroundColor=none;strokeColor=#23445D;fontColor=default;align=center;verticalAlign=middle;fontFamily=Helvetica;fontSize=11;endArrow=none;endFill=0;" edge="1" parent="1" source="Om7gcetM5opKt37vXx8c-22" target="Om7gcetM5opKt37vXx8c-2">
          <mxGeometry relative="1" as="geometry" />
        </mxCell>
        <mxCell id="Om7gcetM5opKt37vXx8c-22" value="product_id" style="ellipse;whiteSpace=wrap;html=1;labelBackgroundColor=none;fillColor=#182E3E;strokeColor=#FFFFFF;fontColor=#FFFFFF;rounded=0;" vertex="1" parent="1">
          <mxGeometry x="1250" y="10" width="70" height="50" as="geometry" />
        </mxCell>
        <mxCell id="Om7gcetM5opKt37vXx8c-28" value="&lt;u&gt;id&amp;nbsp;&lt;/u&gt;" style="ellipse;whiteSpace=wrap;html=1;labelBackgroundColor=none;fillColor=#182E3E;strokeColor=#FFFFFF;fontColor=#FFFFFF;rounded=0;" vertex="1" parent="1">
          <mxGeometry x="-159" y="389" width="90" height="50" as="geometry" />
        </mxCell>
        <mxCell id="Om7gcetM5opKt37vXx8c-29" value="user_id" style="ellipse;whiteSpace=wrap;html=1;labelBackgroundColor=none;fillColor=#182E3E;strokeColor=#FFFFFF;fontColor=#FFFFFF;rounded=0;" vertex="1" parent="1">
          <mxGeometry x="-40" y="469" width="70" height="50" as="geometry" />
        </mxCell>
        <mxCell id="Om7gcetM5opKt37vXx8c-62" style="edgeStyle=orthogonalEdgeStyle;rounded=0;orthogonalLoop=1;jettySize=auto;html=1;exitX=1;exitY=0;exitDx=0;exitDy=0;entryX=0;entryY=0.75;entryDx=0;entryDy=0;labelBackgroundColor=none;strokeColor=#23445D;fontColor=default;align=center;verticalAlign=middle;fontFamily=Helvetica;fontSize=11;endArrow=none;endFill=0;" edge="1" parent="1" source="Om7gcetM5opKt37vXx8c-30" target="Om7gcetM5opKt37vXx8c-5">
          <mxGeometry relative="1" as="geometry" />
        </mxCell>
        <mxCell id="Om7gcetM5opKt37vXx8c-30" value="&lt;u&gt;id&lt;/u&gt;" style="ellipse;whiteSpace=wrap;html=1;labelBackgroundColor=none;fillColor=#182E3E;strokeColor=#FFFFFF;fontColor=#FFFFFF;rounded=0;" vertex="1" parent="1">
          <mxGeometry x="60" y="775" width="70" height="50" as="geometry" />
        </mxCell>
        <mxCell id="Om7gcetM5opKt37vXx8c-31" value="name" style="ellipse;whiteSpace=wrap;html=1;labelBackgroundColor=none;fillColor=#182E3E;strokeColor=#FFFFFF;fontColor=#FFFFFF;rounded=0;" vertex="1" parent="1">
          <mxGeometry x="-10" y="690" width="70" height="50" as="geometry" />
        </mxCell>
        <mxCell id="Om7gcetM5opKt37vXx8c-57" style="edgeStyle=orthogonalEdgeStyle;rounded=0;orthogonalLoop=1;jettySize=auto;html=1;exitX=0.5;exitY=0;exitDx=0;exitDy=0;entryX=0.5;entryY=1;entryDx=0;entryDy=0;labelBackgroundColor=none;strokeColor=#23445D;fontColor=default;endArrow=none;endFill=0;" edge="1" parent="1" source="Om7gcetM5opKt37vXx8c-32" target="Om7gcetM5opKt37vXx8c-5">
          <mxGeometry relative="1" as="geometry" />
        </mxCell>
        <mxCell id="Om7gcetM5opKt37vXx8c-32" value="price" style="ellipse;whiteSpace=wrap;html=1;labelBackgroundColor=none;fillColor=#182E3E;strokeColor=#FFFFFF;fontColor=#FFFFFF;rounded=0;" vertex="1" parent="1">
          <mxGeometry x="260" y="870" width="70" height="50" as="geometry" />
        </mxCell>
        <mxCell id="Om7gcetM5opKt37vXx8c-61" style="edgeStyle=orthogonalEdgeStyle;rounded=0;orthogonalLoop=1;jettySize=auto;html=1;exitX=0;exitY=0;exitDx=0;exitDy=0;entryX=1;entryY=0.75;entryDx=0;entryDy=0;labelBackgroundColor=none;strokeColor=#23445D;fontColor=default;endArrow=none;endFill=0;" edge="1" parent="1" source="Om7gcetM5opKt37vXx8c-33" target="Om7gcetM5opKt37vXx8c-5">
          <mxGeometry relative="1" as="geometry" />
        </mxCell>
        <mxCell id="Om7gcetM5opKt37vXx8c-33" value="stock" style="ellipse;whiteSpace=wrap;html=1;labelBackgroundColor=none;fillColor=#182E3E;strokeColor=#FFFFFF;fontColor=#FFFFFF;rounded=0;" vertex="1" parent="1">
          <mxGeometry x="360" y="800" width="100" height="50" as="geometry" />
        </mxCell>
        <mxCell id="Om7gcetM5opKt37vXx8c-34" value="description" style="ellipse;whiteSpace=wrap;html=1;labelBackgroundColor=none;fillColor=#182E3E;strokeColor=#FFFFFF;fontColor=#FFFFFF;rounded=0;" vertex="1" parent="1">
          <mxGeometry x="135" y="860" width="70" height="50" as="geometry" />
        </mxCell>
        <mxCell id="Om7gcetM5opKt37vXx8c-60" style="edgeStyle=orthogonalEdgeStyle;rounded=0;orthogonalLoop=1;jettySize=auto;html=1;exitX=0.5;exitY=0;exitDx=0;exitDy=0;entryX=0.5;entryY=1;entryDx=0;entryDy=0;labelBackgroundColor=none;strokeColor=#23445D;fontColor=default;endArrow=none;endFill=0;" edge="1" parent="1" source="Om7gcetM5opKt37vXx8c-35" target="Om7gcetM5opKt37vXx8c-4">
          <mxGeometry relative="1" as="geometry" />
        </mxCell>
        <mxCell id="Om7gcetM5opKt37vXx8c-35" value="&lt;u&gt;id&amp;nbsp;&lt;/u&gt;" style="ellipse;whiteSpace=wrap;html=1;labelBackgroundColor=none;fillColor=#182E3E;strokeColor=#FFFFFF;fontColor=#FFFFFF;rounded=0;" vertex="1" parent="1">
          <mxGeometry x="673" y="765" width="90" height="50" as="geometry" />
        </mxCell>
        <mxCell id="Om7gcetM5opKt37vXx8c-36" value="name" style="ellipse;whiteSpace=wrap;html=1;labelBackgroundColor=none;fillColor=#182E3E;strokeColor=#FFFFFF;fontColor=#FFFFFF;rounded=0;" vertex="1" parent="1">
          <mxGeometry x="768" y="725" width="70" height="50" as="geometry" />
        </mxCell>
        <mxCell id="Om7gcetM5opKt37vXx8c-51" style="edgeStyle=orthogonalEdgeStyle;rounded=0;orthogonalLoop=1;jettySize=auto;html=1;exitX=0.5;exitY=1;exitDx=0;exitDy=0;entryX=1;entryY=0.25;entryDx=0;entryDy=0;labelBackgroundColor=none;strokeColor=#23445D;fontColor=default;endArrow=none;endFill=0;" edge="1" parent="1" source="Om7gcetM5opKt37vXx8c-37" target="Om7gcetM5opKt37vXx8c-6">
          <mxGeometry relative="1" as="geometry" />
        </mxCell>
        <mxCell id="Om7gcetM5opKt37vXx8c-37" value="&lt;u&gt;id&lt;/u&gt;" style="ellipse;whiteSpace=wrap;html=1;labelBackgroundColor=none;fillColor=#182E3E;strokeColor=#FFFFFF;fontColor=#FFFFFF;rounded=0;" vertex="1" parent="1">
          <mxGeometry x="1135" y="379" width="70" height="50" as="geometry" />
        </mxCell>
        <mxCell id="Om7gcetM5opKt37vXx8c-52" style="edgeStyle=orthogonalEdgeStyle;rounded=0;orthogonalLoop=1;jettySize=auto;html=1;exitX=0;exitY=0.5;exitDx=0;exitDy=0;entryX=1;entryY=0.75;entryDx=0;entryDy=0;labelBackgroundColor=none;strokeColor=#23445D;fontColor=default;endArrow=none;endFill=0;" edge="1" parent="1" source="Om7gcetM5opKt37vXx8c-38" target="Om7gcetM5opKt37vXx8c-6">
          <mxGeometry relative="1" as="geometry" />
        </mxCell>
        <mxCell id="Om7gcetM5opKt37vXx8c-38" value="order_id" style="ellipse;whiteSpace=wrap;html=1;labelBackgroundColor=none;fillColor=#182E3E;strokeColor=#FFFFFF;fontColor=#FFFFFF;rounded=0;" vertex="1" parent="1">
          <mxGeometry x="1215" y="509" width="70" height="50" as="geometry" />
        </mxCell>
        <mxCell id="Om7gcetM5opKt37vXx8c-39" value="price" style="ellipse;whiteSpace=wrap;html=1;labelBackgroundColor=none;fillColor=#182E3E;strokeColor=#FFFFFF;fontColor=#FFFFFF;rounded=0;" vertex="1" parent="1">
          <mxGeometry x="915" y="379" width="70" height="50" as="geometry" />
        </mxCell>
        <mxCell id="Om7gcetM5opKt37vXx8c-40" value="quantity" style="ellipse;whiteSpace=wrap;html=1;labelBackgroundColor=none;fillColor=#182E3E;strokeColor=#FFFFFF;fontColor=#FFFFFF;rounded=0;" vertex="1" parent="1">
          <mxGeometry x="1005" y="349" width="100" height="50" as="geometry" />
        </mxCell>
        <mxCell id="Om7gcetM5opKt37vXx8c-53" style="edgeStyle=orthogonalEdgeStyle;rounded=0;orthogonalLoop=1;jettySize=auto;html=1;exitX=0;exitY=0;exitDx=0;exitDy=0;entryX=0.75;entryY=1;entryDx=0;entryDy=0;labelBackgroundColor=none;strokeColor=#23445D;fontColor=default;endArrow=none;endFill=0;" edge="1" parent="1" source="Om7gcetM5opKt37vXx8c-41" target="Om7gcetM5opKt37vXx8c-6">
          <mxGeometry relative="1" as="geometry" />
        </mxCell>
        <mxCell id="Om7gcetM5opKt37vXx8c-41" value="product_id" style="ellipse;whiteSpace=wrap;html=1;labelBackgroundColor=none;fillColor=#182E3E;strokeColor=#FFFFFF;fontColor=#FFFFFF;rounded=0;" vertex="1" parent="1">
          <mxGeometry x="1045" y="574" width="70" height="50" as="geometry" />
        </mxCell>
        <mxCell id="Om7gcetM5opKt37vXx8c-43" value="" style="endArrow=none;html=1;rounded=0;exitX=1;exitY=0.5;exitDx=0;exitDy=0;labelBackgroundColor=none;strokeColor=#23445D;fontColor=default;" edge="1" parent="1" source="Om7gcetM5opKt37vXx8c-4" target="Om7gcetM5opKt37vXx8c-91">
          <mxGeometry width="50" height="50" relative="1" as="geometry">
            <mxPoint x="490" y="640" as="sourcePoint" />
            <mxPoint x="526" y="659" as="targetPoint" />
          </mxGeometry>
        </mxCell>
        <mxCell id="Om7gcetM5opKt37vXx8c-49" style="edgeStyle=orthogonalEdgeStyle;rounded=0;orthogonalLoop=1;jettySize=auto;html=1;exitX=0.5;exitY=1;exitDx=0;exitDy=0;entryX=0.178;entryY=-0.017;entryDx=0;entryDy=0;entryPerimeter=0;labelBackgroundColor=none;strokeColor=#23445D;fontColor=default;endArrow=none;endFill=0;" edge="1" parent="1" source="Om7gcetM5opKt37vXx8c-39" target="Om7gcetM5opKt37vXx8c-6">
          <mxGeometry relative="1" as="geometry" />
        </mxCell>
        <mxCell id="Om7gcetM5opKt37vXx8c-50" style="edgeStyle=orthogonalEdgeStyle;rounded=0;orthogonalLoop=1;jettySize=auto;html=1;exitX=0.5;exitY=1;exitDx=0;exitDy=0;entryX=0.667;entryY=0.167;entryDx=0;entryDy=0;entryPerimeter=0;labelBackgroundColor=none;strokeColor=#23445D;fontColor=default;" edge="1" parent="1" source="Om7gcetM5opKt37vXx8c-40" target="Om7gcetM5opKt37vXx8c-6">
          <mxGeometry relative="1" as="geometry" />
        </mxCell>
        <mxCell id="Om7gcetM5opKt37vXx8c-58" style="edgeStyle=orthogonalEdgeStyle;rounded=0;orthogonalLoop=1;jettySize=auto;html=1;exitX=0.5;exitY=0;exitDx=0;exitDy=0;entryX=0.094;entryY=1.028;entryDx=0;entryDy=0;entryPerimeter=0;labelBackgroundColor=none;strokeColor=#23445D;fontColor=default;align=center;verticalAlign=middle;fontFamily=Helvetica;fontSize=11;endArrow=none;endFill=0;" edge="1" parent="1" source="Om7gcetM5opKt37vXx8c-34" target="Om7gcetM5opKt37vXx8c-5">
          <mxGeometry relative="1" as="geometry" />
        </mxCell>
        <mxCell id="Om7gcetM5opKt37vXx8c-66" style="edgeStyle=orthogonalEdgeStyle;rounded=0;orthogonalLoop=1;jettySize=auto;html=1;exitX=0;exitY=1;exitDx=0;exitDy=0;entryX=0.853;entryY=-0.039;entryDx=0;entryDy=0;entryPerimeter=0;labelBackgroundColor=none;strokeColor=#23445D;fontColor=default;endArrow=none;endFill=0;" edge="1" parent="1" source="Om7gcetM5opKt37vXx8c-12" target="Om7gcetM5opKt37vXx8c-1">
          <mxGeometry relative="1" as="geometry" />
        </mxCell>
        <mxCell id="Om7gcetM5opKt37vXx8c-71" style="edgeStyle=orthogonalEdgeStyle;rounded=0;orthogonalLoop=1;jettySize=auto;html=1;exitX=0.5;exitY=1;exitDx=0;exitDy=0;entryX=0.678;entryY=-0.028;entryDx=0;entryDy=0;entryPerimeter=0;labelBackgroundColor=none;strokeColor=#23445D;fontColor=default;endArrow=none;endFill=0;" edge="1" parent="1" source="Om7gcetM5opKt37vXx8c-14" target="Om7gcetM5opKt37vXx8c-7">
          <mxGeometry relative="1" as="geometry" />
        </mxCell>
        <mxCell id="Om7gcetM5opKt37vXx8c-76" style="edgeStyle=orthogonalEdgeStyle;rounded=0;orthogonalLoop=1;jettySize=auto;html=1;exitX=1;exitY=0.5;exitDx=0;exitDy=0;entryX=0.5;entryY=1;entryDx=0;entryDy=0;strokeColor=#23445D;" edge="1" parent="1" source="Om7gcetM5opKt37vXx8c-74" target="Om7gcetM5opKt37vXx8c-7">
          <mxGeometry relative="1" as="geometry" />
        </mxCell>
        <mxCell id="Om7gcetM5opKt37vXx8c-74" value="&lt;font color=&quot;#fcfcfc&quot;&gt;places&lt;/font&gt;" style="rhombus;whiteSpace=wrap;html=1;rounded=0;strokeColor=#FFFFFF;fontFamily=Helvetica;fontSize=11;fontColor=#FFFFFF;labelBackgroundColor=none;fillColor=#182E3E;" vertex="1" parent="1">
          <mxGeometry x="380" y="170" width="110" height="70" as="geometry" />
        </mxCell>
        <mxCell id="Om7gcetM5opKt37vXx8c-77" value="&lt;font color=&quot;#fcfcfc&quot;&gt;contains&lt;/font&gt;" style="rhombus;whiteSpace=wrap;html=1;rounded=0;strokeColor=#FFFFFF;fontFamily=Helvetica;fontSize=11;fontColor=#FFFFFF;labelBackgroundColor=none;fillColor=#182E3E;" vertex="1" parent="1">
          <mxGeometry x="930" y="150" width="110" height="70" as="geometry" />
        </mxCell>
        <mxCell id="Om7gcetM5opKt37vXx8c-83" value="&lt;font color=&quot;#fcfcfc&quot;&gt;owns&lt;/font&gt;" style="rhombus;whiteSpace=wrap;html=1;rounded=0;strokeColor=#FFFFFF;fontFamily=Helvetica;fontSize=11;fontColor=#FFFFFF;labelBackgroundColor=none;fillColor=#182E3E;" vertex="1" parent="1">
          <mxGeometry x="93" y="245" width="110" height="70" as="geometry" />
        </mxCell>
        <mxCell id="Om7gcetM5opKt37vXx8c-90" style="edgeStyle=orthogonalEdgeStyle;rounded=0;orthogonalLoop=1;jettySize=auto;html=1;exitX=0.5;exitY=1;exitDx=0;exitDy=0;strokeColor=#23445D;endArrow=classic;endFill=1;" edge="1" parent="1" source="Om7gcetM5opKt37vXx8c-89" target="Om7gcetM5opKt37vXx8c-5">
          <mxGeometry relative="1" as="geometry" />
        </mxCell>
        <mxCell id="Om7gcetM5opKt37vXx8c-89" value="contains" style="rhombus;whiteSpace=wrap;html=1;strokeColor=#FFFFFF;fontColor=#FFFFFF;fillColor=#182E3E;" vertex="1" parent="1">
          <mxGeometry x="141.99818181818154" y="469.00454545454505" width="80" height="80" as="geometry" />
        </mxCell>
        <mxCell id="Om7gcetM5opKt37vXx8c-92" style="edgeStyle=orthogonalEdgeStyle;rounded=0;orthogonalLoop=1;jettySize=auto;html=1;exitX=0;exitY=0.5;exitDx=0;exitDy=0;entryX=1;entryY=0;entryDx=0;entryDy=0;strokeColor=#23445D;endArrow=none;endFill=0;" edge="1" parent="1" source="Om7gcetM5opKt37vXx8c-91" target="Om7gcetM5opKt37vXx8c-5">
          <mxGeometry relative="1" as="geometry" />
        </mxCell>
        <mxCell id="Om7gcetM5opKt37vXx8c-91" value="Belongs" style="rhombus;whiteSpace=wrap;html=1;strokeColor=#FFFFFF;fontColor=#FFFFFF;fillColor=#182E3E;" vertex="1" parent="1">
          <mxGeometry x="486" y="619" width="80" height="80" as="geometry" />
        </mxCell>
        <mxCell id="Om7gcetM5opKt37vXx8c-95" style="edgeStyle=orthogonalEdgeStyle;rounded=0;orthogonalLoop=1;jettySize=auto;html=1;exitX=1;exitY=0.5;exitDx=0;exitDy=0;entryX=0;entryY=0.5;entryDx=0;entryDy=0;strokeColor=#23445D;" edge="1" parent="1" source="Om7gcetM5opKt37vXx8c-94" target="Om7gcetM5opKt37vXx8c-6">
          <mxGeometry relative="1" as="geometry" />
        </mxCell>
        <mxCell id="Om7gcetM5opKt37vXx8c-94" value="writes" style="rhombus;whiteSpace=wrap;html=1;strokeColor=#FFFFFF;fontColor=#FFFFFF;fillColor=#182E3E;" vertex="1" parent="1">
          <mxGeometry x="595" y="403" width="80" height="80" as="geometry" />
        </mxCell>
        <mxCell id="Om7gcetM5opKt37vXx8c-98" style="edgeStyle=orthogonalEdgeStyle;rounded=0;orthogonalLoop=1;jettySize=auto;html=1;exitX=1;exitY=0.5;exitDx=0;exitDy=0;entryX=0.25;entryY=1;entryDx=0;entryDy=0;strokeColor=#23445D;" edge="1" parent="1" source="Om7gcetM5opKt37vXx8c-97" target="Om7gcetM5opKt37vXx8c-6">
          <mxGeometry relative="1" as="geometry" />
        </mxCell>
        <mxCell id="Om7gcetM5opKt37vXx8c-97" value="has" style="rhombus;whiteSpace=wrap;html=1;strokeColor=#FFFFFF;fontColor=#FFFFFF;fillColor=#182E3E;" vertex="1" parent="1">
          <mxGeometry x="557" y="546" width="80" height="80" as="geometry" />
        </mxCell>
        <mxCell id="Om7gcetM5opKt37vXx8c-101" value="&lt;font color=&quot;#000000&quot;&gt;1&lt;/font&gt;" style="text;html=1;align=center;verticalAlign=middle;resizable=0;points=[];autosize=1;strokeColor=none;fillColor=none;fontColor=#FFFFFF;" vertex="1" parent="1">
          <mxGeometry x="285" y="262" width="25" height="26" as="geometry" />
        </mxCell>
        <mxCell id="Om7gcetM5opKt37vXx8c-102" value="&lt;font color=&quot;#000000&quot;&gt;1&lt;/font&gt;" style="text;html=1;align=center;verticalAlign=middle;resizable=0;points=[];autosize=1;strokeColor=none;fillColor=none;fontColor=#FFFFFF;" vertex="1" parent="1">
          <mxGeometry x="435" y="550" width="25" height="26" as="geometry" />
        </mxCell>
        <mxCell id="Om7gcetM5opKt37vXx8c-103" value="&lt;font color=&quot;#000000&quot;&gt;1&lt;/font&gt;" style="text;html=1;align=center;verticalAlign=middle;resizable=0;points=[];autosize=1;strokeColor=none;fillColor=none;fontColor=#FFFFFF;" vertex="1" parent="1">
          <mxGeometry x="144" y="194" width="25" height="26" as="geometry" />
        </mxCell>
        <mxCell id="Om7gcetM5opKt37vXx8c-104" value="&lt;font color=&quot;#000000&quot;&gt;1&lt;/font&gt;" style="text;html=1;align=center;verticalAlign=middle;resizable=0;points=[];autosize=1;strokeColor=none;fillColor=none;fontColor=#FFFFFF;" vertex="1" parent="1">
          <mxGeometry x="30" y="254" width="25" height="26" as="geometry" />
        </mxCell>
        <mxCell id="Om7gcetM5opKt37vXx8c-105" value="&lt;font color=&quot;#000000&quot;&gt;1&lt;/font&gt;" style="text;html=1;align=center;verticalAlign=middle;resizable=0;points=[];autosize=1;strokeColor=none;fillColor=none;fontColor=#FFFFFF;" vertex="1" parent="1">
          <mxGeometry x="868" y="157" width="25" height="26" as="geometry" />
        </mxCell>
        <mxCell id="Om7gcetM5opKt37vXx8c-106" value="&lt;font color=&quot;#000000&quot;&gt;1&lt;/font&gt;" style="text;html=1;align=center;verticalAlign=middle;resizable=0;points=[];autosize=1;strokeColor=none;fillColor=none;fontColor=#FFFFFF;" vertex="1" parent="1">
          <mxGeometry x="335" y="157" width="25" height="26" as="geometry" />
        </mxCell>
        <mxCell id="Om7gcetM5opKt37vXx8c-108" value="&lt;font color=&quot;#000000&quot;&gt;M&lt;/font&gt;" style="text;html=1;align=center;verticalAlign=middle;resizable=0;points=[];autosize=1;strokeColor=none;fillColor=none;fontColor=#FFFFFF;" vertex="1" parent="1">
          <mxGeometry x="772" y="403" width="28" height="26" as="geometry" />
        </mxCell>
        <mxCell id="Om7gcetM5opKt37vXx8c-109" value="&lt;font color=&quot;#000000&quot;&gt;M&lt;/font&gt;" style="text;html=1;align=center;verticalAlign=middle;resizable=0;points=[];autosize=1;strokeColor=none;fillColor=none;fontColor=#FFFFFF;" vertex="1" parent="1">
          <mxGeometry x="553" y="177" width="28" height="26" as="geometry" />
        </mxCell>
        <mxCell id="Om7gcetM5opKt37vXx8c-110" value="&lt;font color=&quot;#000000&quot;&gt;M&lt;/font&gt;" style="text;html=1;align=center;verticalAlign=middle;resizable=0;points=[];autosize=1;strokeColor=none;fillColor=none;fontColor=#FFFFFF;" vertex="1" parent="1">
          <mxGeometry x="113" y="330" width="28" height="26" as="geometry" />
        </mxCell>
        <mxCell id="Om7gcetM5opKt37vXx8c-111" value="&lt;font color=&quot;#000000&quot;&gt;M&lt;/font&gt;" style="text;html=1;align=center;verticalAlign=middle;resizable=0;points=[];autosize=1;strokeColor=none;fillColor=none;fontColor=#FFFFFF;" vertex="1" parent="1">
          <mxGeometry x="211" y="582" width="28" height="26" as="geometry" />
        </mxCell>
        <mxCell id="Om7gcetM5opKt37vXx8c-112" value="&lt;font color=&quot;#000000&quot;&gt;M&lt;/font&gt;" style="text;html=1;align=center;verticalAlign=middle;resizable=0;points=[];autosize=1;strokeColor=none;fillColor=none;fontColor=#FFFFFF;" vertex="1" parent="1">
          <mxGeometry x="737" y="565" width="28" height="26" as="geometry" />
        </mxCell>
        <mxCell id="Om7gcetM5opKt37vXx8c-113" value="&lt;font color=&quot;#000000&quot;&gt;M&lt;/font&gt;" style="text;html=1;align=center;verticalAlign=middle;resizable=0;points=[];autosize=1;strokeColor=none;fillColor=none;fontColor=#FFFFFF;" vertex="1" parent="1">
          <mxGeometry x="457" y="643" width="28" height="26" as="geometry" />
        </mxCell>
        <mxCell id="Om7gcetM5opKt37vXx8c-114" value="&lt;font color=&quot;#000000&quot;&gt;M&lt;/font&gt;" style="text;html=1;align=center;verticalAlign=middle;resizable=0;points=[];autosize=1;strokeColor=none;fillColor=none;fontColor=#FFFFFF;" vertex="1" parent="1">
          <mxGeometry x="597" y="650" width="28" height="26" as="geometry" />
        </mxCell>
        <mxCell id="Om7gcetM5opKt37vXx8c-115" value="&lt;font color=&quot;#000000&quot;&gt;M&lt;/font&gt;" style="text;html=1;align=center;verticalAlign=middle;resizable=0;points=[];autosize=1;strokeColor=none;fillColor=none;fontColor=#FFFFFF;" vertex="1" parent="1">
          <mxGeometry x="1047" y="154" width="28" height="26" as="geometry" />
        </mxCell>
      </root>
    </mxGraphModel>
  </diagram>
</mxfile>
